<?xml version="1.0" encoding="utf-8"?>
<!-- Generator: Adobe Illustrator 19.2.1, SVG Export Plug-In . SVG Version: 6.00 Build 0)  -->
<svg version="1.1" id="zcaler_blocks_ransomware" xmlns="http://www.w3.org/2000/svg" xmlns:xlink="http://www.w3.org/1999/xlink"
	 x="0px" y="0px" viewBox="0 0 58 41" style="enable-background:new 0 0 58 41;" xml:space="preserve">
<style type="text/css">
	.st0{enable-background:new    ;}
	.st1{fill:#78797A;}
</style>
<title>DIG2361-ransonware-r3a-25May16</title>
<g class="st0">
	<path class="st1" d="M1.4,30.9h5.7v1.7H3.4v1.8h3.1v1.7H3.4v2.1h3.8V40H1.4V30.9z"/>
	<path class="st1" d="M9,30.9h2.1l2.4,4.5l0.9,2h0.1c0-0.5-0.1-1-0.2-1.6c-0.1-0.6-0.1-1.2-0.1-1.7v-3.2h2V40h-2.1l-2.4-4.5l-0.9-2
		h-0.1c0,0.5,0.1,1,0.2,1.6c0.1,0.6,0.1,1.1,0.1,1.7V40H9V30.9z"/>
</g>
<g class="st0">
	<path class="st1" d="M18.4,30.9h2.1v7.4H24V40h-5.7V30.9z"/>
</g>
<g class="st0">
	<path class="st1" d="M29.8,37.8H27L26.5,40h-2.1l2.9-9.1h2.5l2.9,9.1h-2.2L29.8,37.8z M29.4,36.2l-0.2-0.8
		c-0.1-0.5-0.3-0.9-0.4-1.5c-0.1-0.5-0.2-1-0.4-1.5h-0.1c-0.1,0.5-0.2,1-0.3,1.5c-0.1,0.5-0.2,1-0.4,1.4l-0.2,0.8H29.4z"/>
	<path class="st1" d="M38.5,40l-1.8-3.3h-1.1V40h-2.1v-9.1h3.3c0.5,0,0.9,0,1.4,0.1c0.4,0.1,0.8,0.2,1.1,0.5
		c0.3,0.2,0.6,0.5,0.8,0.9c0.2,0.4,0.3,0.8,0.3,1.4c0,0.7-0.1,1.2-0.4,1.7s-0.7,0.8-1.2,1l2.1,3.7H38.5z M35.6,35.1h1.1
		c0.5,0,1-0.1,1.2-0.3c0.3-0.2,0.4-0.6,0.4-1s-0.1-0.8-0.4-0.9c-0.3-0.2-0.7-0.3-1.2-0.3h-1.1V35.1z"/>
	<path class="st1" d="M41.7,35.5c0-0.8,0.1-1.4,0.4-2c0.2-0.6,0.6-1.1,1-1.5c0.4-0.4,0.9-0.7,1.4-0.9s1.1-0.3,1.7-0.3
		c0.6,0,1.2,0.1,1.7,0.4c0.5,0.2,0.9,0.5,1.2,0.8l-1.1,1.3c-0.2-0.2-0.5-0.4-0.7-0.5s-0.6-0.2-1-0.2c-0.4,0-0.7,0.1-1,0.2
		c-0.3,0.1-0.5,0.3-0.8,0.6c-0.2,0.3-0.4,0.6-0.5,0.9c-0.1,0.4-0.2,0.8-0.2,1.2c0,0.9,0.2,1.7,0.6,2.2c0.4,0.5,1.1,0.8,1.9,0.8
		c0.2,0,0.4,0,0.5-0.1c0.2,0,0.3-0.1,0.4-0.2v-1.6h-1.5v-1.7h3.3v4.2c-0.3,0.3-0.8,0.6-1.3,0.8c-0.5,0.2-1.1,0.3-1.8,0.3
		c-0.6,0-1.2-0.1-1.7-0.3c-0.5-0.2-1-0.5-1.4-0.9c-0.4-0.4-0.7-0.9-0.9-1.5C41.9,36.9,41.7,36.3,41.7,35.5z"/>
	<path class="st1" d="M51.1,30.9h5.7v1.7h-3.7v1.8h3.1v1.7h-3.1v2.1H57V40h-5.9V30.9z"/>
</g>
<path class="st1" d="M41.9,24.1l-5.8-5.5c3.7-5.1,2.5-12.3-2.6-15.9S21.2,0.2,17.6,5.4s-2.5,12.3,2.6,15.9c4,2.8,9.3,2.8,13.3,0
	l5.8,5.5c0.8,0.7,1.9,0.7,2.7-0.1S42.7,24.9,41.9,24.1z M26.9,19.7c-4.2,0-7.6-3.4-7.6-7.6s3.4-7.6,7.6-7.6s7.6,3.4,7.6,7.6
	c0,0,0,0,0,0C34.6,16.3,31.1,19.7,26.9,19.7C26.9,19.7,26.9,19.7,26.9,19.7L26.9,19.7z"/>
<polygon class="st1" points="30.8,11.4 27.8,11.4 27.8,8.4 25.8,8.4 25.8,11.4 22.8,11.4 22.8,13.4 25.8,13.4 25.8,16.4 27.8,16.4 
	27.8,13.4 30.8,13.4 "/>
</svg>
