<svg xmlns="http://www.w3.org/2000/svg" width="18.349" height="13.106" fill="#878787"><path d="M17.145.151c-.241428973478-.100512787105-.50048508568-.151848053434-.762-.151H1.966c-.247445115618.000313815991-.492417841133.049240407495-.721.144l7.929 6.632zm.968.897L9.594 8.132c-.243543189722.201022709021-.595456810278.201022709021-.839 0L.249 1.022c-.158838304583.288169295098-.244350662474.610987031714-.249.94v9.175c0 .521415619025.207131548158 1.021475411784.575828068187 1.390171931813S1.444584380975 13.103 1.966 13.103h14.417c.521415619025 0 1.021475411784-.207131548158 1.390171931813-.575828068187S18.349 11.658415619025 18.349 11.137V1.962c-.003310934751-.319306345866-.084309965489-.633005981862-.236-.914z"/></svg>