<svg xmlns="http://www.w3.org/2000/svg" width="33" height="33"><path fill="#36aec0" d="M0 0h33v33H0z"/><path d="M24.796 10.252c-.241428973478-.100512787105-.50048508568-.151848053434-.762-.151H9.617c-.247445115618.000313815991-.492417841133.049240407495-.721.144l7.929 6.632zm.968.897l-8.519 7.084c-.243543189722.201022709021-.595456810278.201022709021-.839 0L7.9 11.123c-.158838304583.288169295098-.244350662474.610987031714-.249.94v9.175c0 .521415619025.207131548158 1.021475411784.575828068187 1.390171931813S9.095584380975 23.204 9.617 23.204h14.417c.521415619025 0 1.021475411784-.207131548158 1.390171931813-.575828068187S26 21.759415619025 26 21.238v-9.175c-.003310934751-.319306345866-.084309965489-.633005981862-.236-.914z" fill="#fff"/></svg>