<svg xmlns="http://www.w3.org/2000/svg" width="33" height="33"><path fill="#0379b4" d="M0 0h33v33H0z"/><path d="M8.289 13.227h3.644v11.719H8.289zm1.822-5.826c.854406128717-.000404452673 1.62488805471.514019533949 1.952041984935 1.303310546383s.146523735494 1.697942303659-.457632699699 2.302098738853-1.512807726418.784786629924-2.302098738853.457632699699S7.999595547327 10.366406128717 8 9.512c.001102570373-1.16541610177.94558389823-2.109897429627 2.111-2.111m4.106 5.829h3.494v1.6h.05c.712117339991-1.217753735846 2.036278484588-1.945158566583 3.446-1.893 3.686 0 4.367 2.427 4.367 5.583v6.428h-3.639v-5.7c0-1.359-.026-3.107-1.893-3.107-1.9 0-2.185 1.48-2.185 3.01v5.8h-3.641z" fill="#fff"/></svg>