<svg xmlns="http://www.w3.org/2000/svg" width="19" height="18" viewBox="0 5 7.8 7.5"><path d="M0 5.9c0-.25.088-.46.26-.62.18-.16.4-.24.69-.24.28 0 .5.08.67.24.18.17.26.38.26.65 0 .24-.085.44-.26.6-.18.17-.41.25-.69.25H.9225c-.28 0-.5-.083-.67-.25s-.26-.37-.26-.63zm.098 6.6v-5h1.7v5zm2.6 0h1.7V9.7c0-.18.02-.31.06-.41.07-.17.18-.32.32-.43.14-.12.32-.18.54-.18.56 0 .84.38.84 1.1v2.7h1.7v-2.9c0-.74-.18-1.3-.53-1.7-.35-.38-.82-.58-1.4-.58-.65 0-1.2.28-1.5.84v.015h-.0075l.0075-.015v-.72h-1.7c.01.16.015.66.015 1.5l-.015 3.5z" fill="#878787"/></svg>