<svg xmlns="http://www.w3.org/2000/svg" width="22.022" height="17.894"><path d="M6.925 17.894c3.416465672262.023359893045 6.699775313693-1.323499658048 9.115637827823-3.739362172177S19.803359893045 8.455465672262 19.78 5.039l-.013-.584c.884228681835-.639677604863 1.647477023197-1.431708603286 2.254-2.339-.826158257863.365901277813-1.702610854912.605577353391-2.6.711.943224028032-.564968820955 1.649018971251-1.453431740415 1.986-2.5-.886676445071.527448802234-1.856979399388.899471545262-2.869 1.1-1.400241704448-1.490355649834-3.626418612705-1.855507575861-5.429394309425-.890564349084S10.374629284007 3.556235864007 10.838 5.548C7.205044317362 5.365769556336 3.820263216178 3.649752419449 1.526.827.327495528568 2.891709960547.940491189567 5.532407697322 2.926 6.858c-.719169132577-.021423819639-1.42262915105-.215552717959-2.051-.566v.057c.000716172516 2.150752636771 1.516831624745 4.003132040337 3.624999999998 4.429-.665110238725.181514619096-1.362971355031.208197544131-2.039999999998.078.591695121008 1.840650293282 2.28792554003 3.101671628247 4.221 3.138-1.59984706813 1.257376741073-3.576177412948 1.939987364537-5.611 1.938-.357665818524-.001515114542-.714938945047-.023886422464-1.07-.067 2.066083303246 1.325884806245 4.470074243576 2.029204032975 6.925 2.026" fill="#878787"/></svg>