<svg xmlns="http://www.w3.org/2000/svg" width="33" height="33"><path fill="#1da1f2" d="M0 0h33v33H0z"/><path d="M13.254 24.127c2.941278256267.020138175425 5.767928822551-1.139378081343 7.847775370604-3.219224629396S24.341138175425 16.001278256267 24.321 13.06q0-.253-.011-.5c.761087296977-.550856616023 1.418007000058-1.232834080974 1.94-2.014-.709875530811.314559196752-1.462920723094.520854477718-2.234.612.812272377881-.486042460867 1.420048524559-1.250916301599 1.71-2.152-.76360733426.452947908786-1.598941389878.772201086318-2.47.944-1.205396235923-1.282806285364-3.121620576848-1.597147898401-4.673682732045-.766681091268S16.228568999707 11.782408273276 16.627 13.497c-3.128043471699-.156365285878-6.042563765947-1.63361777725-8.018-4.064-1.033391480063 1.776394846097-.507986784356 4.050083666767 1.2 5.193-.617849279843-.018946218644-1.22211861322-.185960500911-1.762-.487v.05c.000499931492 1.851721008744 1.305899075532 3.446558219967 3.120999999999 3.813-.572845060636.156347508252-1.173911771822.179268094279-1.757.067.509968725888 1.584042335142 1.970180770899 2.668954971776 3.634 2.7-1.377929724703 1.081277656765-3.079473712707 1.667713330544-4.831 1.665-.310124512974.000209752411-.619992913696-.017821382976-.928-.054 1.778469570814 1.142483864867 3.848183648592 1.748956607886 5.962 1.747" fill="#fff"/></svg>