<svg xmlns="http://www.w3.org/2000/svg" fill="#878787" height="36" viewBox="0 0 10.6875 10.6875" width="36"><path d="M5.34375 0C2.392478368092 0 0 2.392478368092 0 5.34375s2.392478368092 5.34375 5.34375 5.34375 5.34375-2.392478368092 5.34375-5.34375S8.295021631908 0 5.34375 0zm2.750625 3.9375l.004921875.183515625c0 1.875234375-1.428046875 4.03875-4.04015625 4.03875-.772903176823.003085728183-1.53009051421-.218208377518-2.1796875-.63703125.112642189037.014076430461.226095165958.02065341463.339609375.0196875.637083554537.000054087756 1.255867881761-.21305523454 1.7578125-.605390625-.606090614262-.017892634446-1.135385382058-.415145250063-1.321875-.992109375.088654585606.017561014927.178935165914.025575478976.269296875.02390625.125493430316.001089603959.250574388471-.014515959818.371953125-.04640625-.661612247669-.136925220906-1.136314689344-.719367796219-1.136953125-1.395v-.01546875c.196604199538.108970397189.416547824906.169020794905.64125.175078125-.624941128828-.417593696437-.816343011506-1.249775795036-.436640625-1.8984375.719449239679.888920749517 1.78351145875 1.429262847306 2.925703125 1.485703125-.022961935549-.106255605764-.034045571282-.214733742723-.033046875-.3234375-.000497768899-.582789665014.355413339067-1.106618130048.897414647719-1.320811087076S7.313834596909 2.554861687416 7.711875 2.980546875c.317419671232-.062420898014.621814212938-.178709125275.9-.343828125-.104979434036.329213929221-.327157245834.608437395399-.624375.7846875.281948620157-.035039594515.55736516129-.110583770457.817734375-.224296875-.189732852191.288151023642-.430665374769.539092612439-.710859375.740390625z"/></svg>