<svg xmlns="http://www.w3.org/2000/svg" height="36" width="36"><path d="M28.1022 26.4822V19.455c0-3.765-2.01-5.517-4.6896-5.517-2.1624 0-3.1314 1.1898-3.6714 2.0244V14.226h-4.074c.054 1.1502 0 12.2562 0 12.2562h4.074v-6.8448c0-.3654.0264-.7314.1344-.993.294-.732.9642-1.4898 2.0892-1.4898 1.4748 0 2.064 1.1238 2.064 2.7708v6.5574h4.0734zm-16.7268-13.929c1.4202 0 2.3052-.942 2.3052-2.1186-.0264-1.2018-.885-2.1168-2.2782-2.1168s-2.3046.9144-2.3046 2.1168c0 1.1766.8844 2.1186 2.2518 2.1186zM18 36C8.0592 36 0 27.9408 0 18S8.0592 0 18 0s18 8.0586 18 18-8.0592 18-18 18zm-4.5876-9.5178V14.226H9.339v12.2562z" fill="#878787" fill-rule="evenodd"/></svg>