<svg xmlns="http://www.w3.org/2000/svg" fill="#878787" height="36" viewBox="0 0 10.6875 10.6875" width="36"><path d="M4.60265625 6.20578125l1.4821875-.859921875-1.4821875-.864140625zM5.34375 0C2.392478368092 0 0 2.392478368092 0 5.34375s2.392478368092 5.34375 5.34375 5.34375 5.34375-2.392478368092 5.34375-5.34375S8.295021631908 0 5.34375 0zm2.8125 6.289453125c.000186560891.28226656588-.111812644296.553036082085-.311339342394.752694655066S7.374688502533 7.353984436653 7.092421875 7.353984375h-3.49734375c-.282266627533 6.1653e-8-.552962084508-.112178021953-.752488782606-.311836594934S2.531063439109 6.57171969088 2.53125 6.289453125v-1.89140625c-.000186560891-.28226656588.111812644296-.553036082086.311339342394-.752694655067S3.312811497468 3.333515563347 3.595078125 3.333515625h3.49734375c.282266627533-6.1653e-8.552962084508.112178021953.752488782606.311836594934S8.156436560891 4.11578030912 8.15625 4.398046875z"/></svg>