<svg xmlns="http://www.w3.org/2000/svg" height="36" viewBox="0 0 10.6875 10.6875" width="36" fill="#878787"><path d="M5.34375 0C2.392478368092 0 0 2.392478368092 0 5.34375s2.392478368092 5.34375 5.34375 5.34375 5.34375-2.392478368092 5.34375-5.34375S8.295021631908 0 5.34375 0zm1.52015625 3.47765625c0 .100546875-.0421875.140625-.140625.140625l-.56671875.007734375c-.1884375.007734375-.29109375.093515625-.29109375.290390625v.6328125h.809296875c.1153125 0 .1546875.039375.1546875.155390625q0 .421875 0 .84796875c0 .114609375-.0365625.15046875-.152578125.151171875h-.8184375v2.28796875c0 .12234375-.03796875.161015625-.15890625.161015625h-.8803125c-.106171875 0-.14765625-.041484375-.14765625-.14765625v-2.2978125h-.69890625c-.1096875 0-.1490625-.040078125-.1490625-.15046875q0-.426796875 0-.852890625c0-.1096875.041484375-.151171875.149765625-.151171875H4.6715625V3.9375c-.008286525081-.276356722662.058020587866-.549843203168.191953125-.79171875.13922889258-.244190148457.362331435169-.429567625054.627890625-.52171875.172343049979-.062707895526.354498563118-.094138650734.537890625-.0928125h.691171875c.099140625 0 .140625.04359375.140625.140625l.0028125.80578125z"/></svg>