<svg xmlns="http://www.w3.org/2000/svg" height="20.00001" width="20" fill="#4a4a49" viewBox="0 0 20 20.000009"><path d="M8.3942648 8.1323548H4.8270293a16.798475 16.798475 0 0 1 .3344735-2.928508 27.803594 27.803594 0 0 0 3.232762.238092zM4.1757426 12.204027a17.885376 17.885376 0 0 1-.339074-3.0824002H0a8.8379492 8.8379492 0 0 0 1.159112 3.9149602 14.991983 14.991983 0 0 1 3.0166306-.83256zm4.2185222 5.049956v-4.45283a27.023136 27.023136 0 0 0-2.998333.213556c.635931 2.26385 1.737997 3.895538 2.998333 4.239274zm0-8.1323562H4.8270293a16.798144 16.798144 0 0 0 .3344735 2.9284952 27.80415 27.80415 0 0 1 3.232762-.238078zm.989258-.989272h3.5672222a16.79746 16.79746 0 0 0-.334445-2.928508 27.804126 27.804126 0 0 1-3.2327772.238092zM8.3942648 0c-1.260336.3437227-2.362402 1.9754233-2.998333 4.2392733a27.026354 27.026354 0 0 0 2.998333.213556zm.989258 0v4.4528293a27.032265 27.032265 0 0 0 2.9983462-.2135294C11.745937 1.9754233 10.643859.3437227 9.3835228 0zM4.1757426 5.0499558a14.99169 14.99169 0 0 1-3.0166306-.8325599A8.8379065 8.8379065 0 0 0 0 8.1323548h3.8366686a17.8854 17.8854 0 0 1 .339074-3.082399zM6.5024098 17.202876c-.9002-.903281-1.6317272-2.30949-2.1003538-4.036975a14.420896 14.420896 0 0 0-2.6934973.717162 8.9300445 8.9300445 0 0 0 4.7938581 3.319813zM1.7085654 3.37092a14.42073 14.42073 0 0 0 2.6934972.7171626C4.8706893 2.3605973 5.6022248.9543873 6.5024168.0511113A8.9300692 8.9300692 0 0 0 1.7085654 3.37092zM11.275371.0511113c.900191.903276 1.631727 2.3095127 2.10037 4.036998a14.420452 14.420452 0 0 0 2.693508-.7171893A8.9301359 8.9301359 0 0 0 11.275371.0511113zm-.21981 15.8866757l-.913333-3.113336-.7577792-.02222v4.451114c.604446-.164445 1.1733342-.626652 1.6711122-1.315556zm5.563101-11.7203844a14.991325 14.991325 0 0 1-3.016617.8325602 17.884084 17.884084 0 0 1 .339085 3.082399h3.836657a8.8380912 8.8380912 0 0 0-1.159125-3.9149659zm-5.623101 5.3892692l1.895557.5555562.06-1.0399852H9.3844488v2.6888902l.464445.01332-.242222-.828889a1.1190139 1.1190139 0 0 1 1.0733342-1.4333342 1.1636184 1.1636184 0 0 1 .315555.04444zm6.331115 1.8555792a8.7712999 8.7712999 0 0 0 .451111-2.3400022H13.94223l-.08222 1.3244462zm-.331305 3.548646l2.66064-1.535603a.22938456.22938456 0 0 0-.05017-.418796l-8.86065-2.595921a.22938234.22938234 0 0 0-.284628.284613l2.595922 8.860656a.22937345.22937345 0 0 0 .418782.05017l1.535606-2.660619 2.92235 2.919501a.2909357.2909357 0 0 0 .411334-.000093l1.570245-1.570245a.29094904.29094904 0 0 0 .000093-.411334z"/></svg>