<svg xmlns="http://www.w3.org/2000/svg" height="20.00095" width="20" fill="#4a4a49" viewBox="0 0 20.297999 20.298964"><path d="M15.81124173522 20.2989632996c-3.380257725 0-7.4305665375-2.852217465-10.18477653-5.6304292875-2.9262231075-2.9022212775-5.9384527725-7.24855266-5.600427-10.7308181625.072458096731-.674911171783.37635988969-1.303917208373.860065575-1.780135725L2.51622806772.5274558371C2.853836170083.189737473098 3.311797203723 1e-12 3.78932513397 1e-12S4.724814097857.189737473098 5.06242220022.5274558371l2.828215635 2.828215635c.337718364002.337608102363.527455837099.795569136003.527455837099 1.27309706625s-.189737473097.935488963887-.527455837099 1.27309706625l-1.7021297775 1.6981294725 6.5064960825 6.508496235 1.7061300825-1.708130235c.337608102363-.337718364002.795569136003-.527455837099 1.27309706625-.527455837099s.935488963887.189737473097 1.27309706625.527455837099l2.82421533 2.836216245c.701941626306.702815697869.701941626306 1.841378282131 0 2.54419398l-1.6301242875 1.63212444c-.477221169568.483439154879-1.106746069276.787250273706-1.7821358775.860065575-.180013725.01600122-.3580272975.0260019825-.548041785.0260019825zM3.80032597272 1.1995070771c-.159781411968-.000391526291-.31312042542.06295980321-.4260324825.17601342l-1.64012505 1.62412383c-.288148843743.281298458163-.469818164666.653826598732-.5140391925 1.0540803675-.244018605 2.524192455 1.8181386225 6.3584847975 5.2544006175 9.764744505 3.412260165 3.4422624525 7.2465525075 5.50441968 9.7707449625 5.2584009225.397936551727-.044225112394.767932884274-.226039753817 1.0460797575-.5140391925l1.63212444-1.6301242875c.233980542102-.23427189929.233980542102-.61379276071 0-.84806466l-2.828215635-2.828215635c-.112589707727-.112981325284-.265529358791-.176486597425-.42503240625-.176486597425s-.312442698523.063505272141-.42503240625.176486597425l-2.1261621075 2.1261621075c-.23427189929.233980542102-.61379276071.233980542102-.84806466 0l-7.3545607425-7.3545607425c-.233980542102-.23427189929-.233980542102-.61379276071 0-.84806466l2.1261621075-2.12816226c.233980542102-.23427189929.233980542102-.61379276071 0-.84806466l-2.828215635-2.828215635c-.109960635443-.110146336369-.258416770318-.173258123176-.4140315675-.17601342z"/></svg>