<svg xmlns="http://www.w3.org/2000/svg" width="137.72" height="33"><path d="M81.2760282 32.9118126v-1.4884869c0-.77391.283767-1.1711838.8229243-1.1711838.034309577344-.003448242266.068878422656-.003448242266.103188 0v-1.0679958h-.1908978c-.3792159 0-.6371859.25797-.7945476.77391v-.6836205h-.9854454v3.6528552zm-4.0733463-2.2752954c.051594-.51594.25797-.748113.6733017-.748113s.5701137.2244339.6165483.748113zm2.347527.6320265c0-.644925-.0799707-.9493296-.2966655-1.3130673-.304309124778-.494348097579-.848852613488-.78922724309-1.4291538-.77391-1.0447785 0-1.7619351.77391-1.7619351 1.9321953s.7171566 1.8677028 1.80579 1.8677028c.8538807 0 1.3852989-.3998535 1.6690659-1.2666327l-.980286-.0670722c-.02344515103.336275055692-.313625838847.590758912864-.6500844.5701137-.199499643766.000978343498-.390053644644-.082702396662-.524326667024-.230255168508S77.182948529873 31.642486999144 77.2026819 31.4439633c-.003317632203-.056704915313-.003317632203-.113555284687 0-.1702602zm-4.64346-1.1711838h.7868085v-.8384025h-.7868085v-1.1557056l-.9261123.0748113-.0877098 1.0808943h-.6371859v.8384025h.5778528v1.702602c0 .8667792.3405204 1.1944011 1.2305169 1.1944011.23117863451-.012110492765.461286768002-.039688995655.6887799-.0825504v-.799707c-.748113.051594-.8461416 0-.8461416-.4746648zm-2.0947164 2.8144527v-2.3397879c0-.51594-.0748113-.8151852-.2450715-1.03188-.220726456242-.242662137593-.539305944525-.372559131328-.8667792-.3534189-.51594 0-.7558521.154782-1.0679958.6887799v-.6165483h-.9983439v3.6528552h1.0731552v-2.06376c0-.5339979.206376-.8384025.5701137-.8384025.167018937724-.008832587281.322482891916.085264016572.3921144.2373324.070365036599.192048440641.093372969587.398234917038.0670722.6010701v2.06376zm-6.2093379-2.2752954c.051594-.51594.25797-.748113.6733017-.748113s.5701137.2244339.6165483.748113zm2.347527.6320265c0-.644925-.0799707-.9493296-.2966655-1.3130673-.304309124778-.494348097579-.848852613488-.78922724309-1.4291538-.77391-1.0447785 0-1.7619351.77391-1.7619351 1.9321953s.7171566 1.8677028 1.80579 1.8677028c.8538807 0 1.3878786-.3998535 1.6690659-1.2666327l-.9777063-.0670722c-.026128846595.335998308767-.31620269795.589382977342-.6526641.5701137-.199499643766.000978343498-.390053644644-.082702396662-.524326667024-.230255168508S66.582961229873 31.642486999144 66.6026946 31.4439633c-.003317632203-.056704915313-.003317632203-.113555284687 0-.1702602zm-4.8678939.2141151c-.0670722.4282302-.25797.6294468-.5984904.6294468-.438549 0-.6088092-.2966655-.6088092-1.03188s.1934775-1.0808943.6371859-1.0808943c.3559986 0 .51594.1908978.5701137.6578235l1.0086627-.0593331c-.016606321231-.33383290666-.150961305977-.650983789019-.3792159-.8951559-.31344190956-.348916952897-.767183245995-.538370538048-1.2356763-.51594-1.0886334 0-1.80579.77391-1.80579 1.9244562s.6887799 1.8754419 1.7490366 1.8754419c.529068662841.031654737714 1.039367643472-.201265819733 1.3620816-.6217077.186361735924-.235588920721.295381453061-.523004538629.3121437-.8229243zm-4.1713749.0154782c0 .4669257-.2889264.8151852-.6733017.8151852-.124707699013.00532999416-.245835787539-.042422044314-.333357328425-.13141866735S58.771051144494 31.970997708625 58.7784645 31.8463965c.011959559275-.275199885207.21175181844-.50597597066.4824039-.5572152.210312424055-.070086588647.428832925297-.11257668611.6500844-.1264053zm1.1428071 1.4136756c-.06645577661-.220487296389-.089239085932-.451825514119-.0670722-.6810408v-1.6535877c0-.5314182-.0386955-.7171566-.1934775-.9183732-.2218542-.2966655-.7094175-.4720851-1.3182267-.4720851-.463698485955-.022696736822-.922100342269.106851613876-1.3053282.3688971-.239028623846.18950624103-.388537849799.469836039693-.412752.77391l.9906048.0954489c.010494665214-.154175443831.082576378734-.297645701892.200008682417-.398093994711S59.217856132953 29.877460706905 59.3717955 29.8909839c.147643351775-.021652751634.296874368235.02738486918.402896784857.132392717222s.15649265104.253760461351.136260515143.401605182778v.2089557c-.475534985865.014745931769-.94757037305.086633889818-1.4059365.2141151-.510568790656.130541640423-.866174786343.592616497094-.8616198 1.1195898 0 .6217077.4540272 1.03188 1.1505462 1.03188.51594 0 .8074461-.154782 1.1686041-.644925-.001737582411.031792576369-.001737582411.063656323631 0 .0954489-.001849475475.159715712439.015472336786.319076385244.051594.4746648zm-4.64346-2.8144527h.77391v-.8384025h-.77391v-1.1557056l-.9261123.0748113-.0902895 1.0808943h-.6397656v.8384025h.5778528v1.702602c0 .8667792.3405204 1.1944011 1.2279372 1.1944011.231202821711-.011828304279.461329948663-.039409083539.6887799-.0825504v-.799707c-.748113.051594-.8435619 0-.8435619-.4746648zm-3.1704513 1.4007771c0 .4669257-.2889264.8151852-.6758814.8151852-.124707699013.00532999416-.245835787539-.042422044314-.333357328425-.13141866735S52.097367244494 31.970997708625 52.1047806 31.8463965c.011959559275-.275199885207.21175181844-.50597597066.4824039-.5572152.211140526-.070305749919.430542336872-.11279859076.6526641-.1264053zm1.1402274 1.4136756c-.06645577661-.220487296389-.089239085932-.451825514119-.0670722-.6810408v-1.6535877c0-.5314182-.0361158-.7171566-.1908978-.9183732-.2244339-.2966655-.7119972-.4720851-1.3208064-.4720851-.45858707237-.020240634497-.911313897753.109239237562-1.28985.3688971-.238787624609.190038089144-.388965405593.469872463647-.4153317.77391l.9931845.0954489c.009830168427-.153953624072.08135497432-.297430627986.198380428384-.397946266954S52.557336246699 29.877467340233 52.7110101 29.8909839c.148051952348-.022561872993.298068507962.026070148838.404724762035.131202742139s.157441641933.254433915751.137012237965.402795157861v.2089557c-.476401142323.01453956434-.949314929763.08642938917-1.4085162.2141151-.509543696329.131539753897-.863892461437.593363669983-.8590401 1.1195898 0 .6217077.4514475 1.03188 1.1479665 1.03188.51594 0 .8074461-.154782 1.1711838-.644925-.002597278265.031763293723-.002597278265.063685606277 0 .0954489-.000530508517.159649167611.016774798501.318857992173.051594.4746648zM47.5722477 28.89264h.490143c.343465280183-.028371275885.677181847967.122874537.8822574.3998535.242004157475.326650819792.364902791614.726298970807.3482595 1.1324883.015065943576.419145418486-.110222202262.831325260592-.3559986 1.1711838-.212608154408.271078907563-.54647517357.418173942092-.8899965.3921144h-.4746648zm-1.1324883-.9106341v4.9401255h1.6974426c.656941830134.037585832691 1.295169128614-.226442722335 1.7335584-.7171566.417829401259-.49165055645.640864195232-1.119452198744.6268671-1.7645148.020019463659-.64803026874-.204705419104-1.279838750606-.6294468-1.7696742-.4591866-.51594-.9622281-.6887799-1.9115577-.6887799z" fill="#1a1a18"/><path fill="#0080c8" d="M41.277778282928 29.532406465988h2.553902901592v2.561642178726h-2.553902901592z"/><path d="M37.9938216 30.4972134l1.0499379-1.238256h-1.0499379l-1.0679958 1.2614733c-.053089689904.074209792493-.109916375898.145673655183-.1702602.2141151l-.154782.1986369v-2.9614956h-1.0164018v4.9401255h1.0164018V31.98828l.6294468-.7248957.77391 1.6587471h1.1918214zm-3.86955 2.4145992v-1.4884869c0-.77391.283767-1.1711838.8229243-1.1711838.035177612368-.003322710305.070590087632-.003322710305.1057677 0v-1.0679958h-.1934775c-.3792159 0-.6371859.25797-.7945476.77391v-.6836205h-.9854454v3.6528552zm-3.4593777-3.0234084c.438549 0 .6088092.3482595.6088092 1.2305169 0 .7919679-.1934775 1.1634447-.6165483 1.1634447s-.6139686-.3843753-.6139686-1.28985c0-.77391.1857384-1.1041116.6217077-1.1041116m-.0283767-.7016784c-1.03188 0-1.728399.7558521-1.728399 1.8728622-.02624808367.497448418503.135857874931.986529464054.4540272 1.3698207.31271883038.376884608455.785350315881.583541290374 1.2743718.5572152 1.0447785 0 1.7696742-.77391 1.7696742-1.8883404 0-1.1557056-.7042581-1.9115577-1.7696742-1.9115577m-1.9425141.0722316h-.8280837l-.6242874 2.244339-.5314182-2.244339h-.9777063l-.5546355 2.2314405-.593331-2.2314405h-1.1247492l1.1247492 3.6528552h.9132138l.5701137-2.347527.5778528 2.347527h.954489zm-6.2299755.8384025h.77391v-.8384025h-.77391v-1.1557056l-.9261123.0748113-.0902895 1.0808943h-.6371859v.8384025h.5778528v1.702602c0 .8667792.3405204 1.1944011 1.2305169 1.1944011.231202821711-.011828304279.461329948663-.039409083539.6887799-.0825504v-.799707c-.748113.051594-.8435619 0-.8435619-.4746648zm-4.2384471.5391573c.051594-.51594.25797-.748113.6733017-.748113s.5726934.2244339.6165483.748113zm2.347527.6320265c.035789591848-.457271510137-.066670197048-.914745479857-.2940858-1.3130673-.305902071594-.493966081747-.850903139141-.788561253394-1.4317335-.77391-1.03188 0-1.7619351.77391-1.7619351 1.9321953s.7171566 1.8677028 1.80579 1.8677028c.851301 0 1.3852989-.3998535 1.6664862-1.2666327l-.9777063-.0670722c-.024790050615.336668598156-.31571843633.590799717694-.6526641.5701137-.199499643766.000978343498-.390053644644-.082702396662-.524326667024-.230255168508S18.203267429873 31.642486999144 18.2230008 31.4439633c-.003317632203-.056704915313-.003317632203-.113555284687 0-.1702602zm-4.2281283-3.2968566h-.8977356v2.5797c.002027046714.108679877262.009776881451.217177563583.0232173.3250422l-1.6819644-2.9047422h-1.2459951v4.9401255h.8977356v-2.9563362c0-.0283767 0-.103188-.0154782-.2141151v-.1702602l1.934775 3.35361h.9931845z" fill="#1a1a18"/><path fill="#0080c8" d="M7.380521857452 29.532406465988h2.553902901592v2.561642178726H7.380521857452z"/><path d="M0 32.9118126h1.1557056v-4.9401255H0zm1.6432689-4.9401255v.9777063h1.2305169v3.9624192h1.1711838v-3.9624192h1.2227778v-.9777063z" fill="#1a1a18"/><g transform="scale(.25797)"><path d="M533.86 93.25h-204.9v4.39h204.88m-248.09.01c-18.26 0-32.95-10.76-32.29-27 .7-17.29 13.31-28.11 28-27.46 11.34.5 24.9 8.83 24.07 27.83h-38.66v-5H300c-.34-11.83-10.73-17.93-19.5-17.89-14.73.06-21.7 11.76-21.7 23.87 0 8.4 6.36 20 26.4 21.28h34.13v4.4h-33.58M241.08 68c.2-11.12-7.52-19.88-16.79-19.88S207.21 55.81 207.51 68l.05 29.65h-5.28V64.9c0-12.150264496277 9.849735503723-22 22-22s22 9.849735503723 22 22l.09 32.75h-5.52l.2-29.65M192.6 97.64V43.09h-5.28v54.55l5.28.04M190 37.39c1.656854249492 0 3-1.343145750508 3-3s-1.343145750508-3-3-3-3 1.343145750508-3 3 1.343145750508 3 3 3m-17.16 55.86H79v4.39h98.23V.34h-4.39v92.91" fill="#0080c8"/><path d="M154.22 88.33V.28H143.5l.05 72.17L101.8.28H89.18v80.84L60.75 0H47.6L17.29 83.3h11.46l8.92-25h31.91l10.19 30h20.15l-.05-71.48 42.21 71.48zM40.51 49.39L54.12 13l12.24 36.43zm21.47 48.33H0V.11h11.8v87.11h50.18z" fill="#1a1a18"/></g></svg>